<mxfile host="app.diagrams.net" modified="2023-12-28T13:05:47.553Z" agent="Mozilla/5.0 (Windows NT 10.0; Win64; x64) AppleWebKit/537.36 (KHTML, like Gecko) Chrome/120.0.0.0 Safari/537.36 Edg/120.0.0.0" etag="aPTn-0mMM0A7Sq7GA9_-" version="22.1.15" type="github">
  <diagram name="第 1 页" id="PlOnDiv-BAUK3iWgIsz9">
    <mxGraphModel dx="-228" dy="-1587" grid="1" gridSize="10" guides="1" tooltips="1" connect="1" arrows="1" fold="1" page="1" pageScale="1" pageWidth="827" pageHeight="1169" math="0" shadow="0">
      <root>
        <mxCell id="0" />
        <mxCell id="1" parent="0" />
        <mxCell id="JL-uZOZ96CASCW1fJOBJ-1" value="管理者" style="shape=umlActor;verticalLabelPosition=bottom;verticalAlign=top;html=1;outlineConnect=0;" vertex="1" parent="1">
          <mxGeometry x="1990" y="2465" width="30" height="60" as="geometry" />
        </mxCell>
        <mxCell id="JL-uZOZ96CASCW1fJOBJ-2" value="查詢銷售訊息" style="ellipse;whiteSpace=wrap;html=1;" vertex="1" parent="1">
          <mxGeometry x="2117.5" y="2420" width="105" height="50" as="geometry" />
        </mxCell>
        <mxCell id="JL-uZOZ96CASCW1fJOBJ-3" value="銷售訊息盤點" style="ellipse;whiteSpace=wrap;html=1;" vertex="1" parent="1">
          <mxGeometry x="2117.5" y="2515" width="105" height="50" as="geometry" />
        </mxCell>
        <mxCell id="JL-uZOZ96CASCW1fJOBJ-4" value="" style="endArrow=classic;html=1;rounded=0;exitX=1;exitY=0.3333333333333333;exitDx=0;exitDy=0;exitPerimeter=0;entryX=0;entryY=0.5;entryDx=0;entryDy=0;" edge="1" parent="1" source="JL-uZOZ96CASCW1fJOBJ-1" target="JL-uZOZ96CASCW1fJOBJ-2">
          <mxGeometry width="50" height="50" relative="1" as="geometry">
            <mxPoint x="2060" y="2550" as="sourcePoint" />
            <mxPoint x="2110" y="2500" as="targetPoint" />
          </mxGeometry>
        </mxCell>
        <mxCell id="JL-uZOZ96CASCW1fJOBJ-5" value="" style="endArrow=classic;html=1;rounded=0;exitX=1;exitY=0.3333333333333333;exitDx=0;exitDy=0;exitPerimeter=0;entryX=0;entryY=0.5;entryDx=0;entryDy=0;" edge="1" parent="1" source="JL-uZOZ96CASCW1fJOBJ-1" target="JL-uZOZ96CASCW1fJOBJ-3">
          <mxGeometry width="50" height="50" relative="1" as="geometry">
            <mxPoint x="2030" y="2495" as="sourcePoint" />
            <mxPoint x="2125" y="2465" as="targetPoint" />
          </mxGeometry>
        </mxCell>
      </root>
    </mxGraphModel>
  </diagram>
</mxfile>
